<svg width="102" height="102" viewBox="0 0 102 102" fill="none" xmlns="http://www.w3.org/2000/svg">
<g filter="url(#filter0_d_161_1598)">
<circle cx="51" cy="47" r="41" fill="#514A7E"/>
<path d="M50.9996 29.3472C40.9546 29.3472 32.7773 36.4995 32.7773 45.2917C32.7773 54.0839 40.9546 61.2361 50.9996 61.2361C52.8789 61.2339 54.749 60.9734 56.5573 60.4617L62.8554 64.4706C63.0273 64.5809 63.2258 64.6429 63.4299 64.6502C63.6341 64.6574 63.8364 64.6096 64.0158 64.5118C64.1951 64.414 64.3448 64.2698 64.4492 64.0942C64.5537 63.9186 64.6089 63.7182 64.6093 63.5139V55.8492C66.0343 54.4821 67.1715 52.8438 67.9538 51.0307C68.7362 49.2176 69.1479 47.2663 69.1648 45.2917C69.2218 36.4995 61.0446 29.3472 50.9996 29.3472ZM62.7187 54.5281C62.6042 54.6343 62.5128 54.7629 62.4501 54.9059C62.3874 55.0489 62.3548 55.2033 62.3543 55.3595V61.4411L57.366 58.2636C57.2268 58.1757 57.0702 58.1189 56.9071 58.0973C56.7439 58.0757 56.5779 58.0897 56.4207 58.1383C54.6653 58.6835 52.8376 58.96 50.9996 58.9583C42.2073 58.9583 35.0551 52.8311 35.0551 45.2917C35.0551 37.7522 42.2073 31.625 50.9996 31.625C59.7918 31.625 66.944 37.7522 66.944 45.2917C66.918 47.04 66.5291 48.7638 65.8017 50.3538C65.0743 51.9438 64.0245 53.3652 62.7187 54.5281Z" fill="#FFFDF5"/>
<path d="M58.972 44.1528H43.0276C42.7255 44.1528 42.4358 44.2728 42.2222 44.4863C42.0087 44.6999 41.8887 44.9896 41.8887 45.2917C41.8887 45.5937 42.0087 45.8834 42.2222 46.097C42.4358 46.3106 42.7255 46.4305 43.0276 46.4305H58.972C59.2741 46.4305 59.5637 46.3106 59.7773 46.097C59.9909 45.8834 60.1109 45.5937 60.1109 45.2917C60.1109 44.9896 59.9909 44.6999 59.7773 44.4863C59.5637 44.2728 59.2741 44.1528 58.972 44.1528Z" fill="#FFFDF5"/>
<path d="M55.2704 49.8472H46.7287C46.4267 49.8472 46.137 49.9672 45.9234 50.1808C45.7098 50.3944 45.5898 50.6841 45.5898 50.9861C45.5898 51.2882 45.7098 51.5779 45.9234 51.7914C46.137 52.005 46.4267 52.125 46.7287 52.125H55.2704C55.5725 52.125 55.8621 52.005 56.0757 51.7914C56.2893 51.5779 56.4093 51.2882 56.4093 50.9861C56.4093 50.6841 56.2893 50.3944 56.0757 50.1808C55.8621 49.9672 55.5725 49.8472 55.2704 49.8472Z" fill="#FFFDF5"/>
<path d="M43.3469 40.7361H58.6536C58.9556 40.7361 59.2453 40.6161 59.4589 40.4025C59.6725 40.189 59.7925 39.8993 59.7925 39.5972C59.7925 39.2952 59.6725 39.0055 59.4589 38.7919C59.2453 38.5783 58.9556 38.4583 58.6536 38.4583H43.3469C43.0448 38.4583 42.7552 38.5783 42.5416 38.7919C42.328 39.0055 42.208 39.2952 42.208 39.5972C42.208 39.8993 42.328 40.189 42.5416 40.4025C42.7552 40.6161 43.0448 40.7361 43.3469 40.7361Z" fill="#FFFDF5"/>
</g>
<defs>
<filter id="filter0_d_161_1598" x="0" y="0" width="102" height="102" filterUnits="userSpaceOnUse" color-interpolation-filters="sRGB">
<feFlood flood-opacity="0" result="BackgroundImageFix"/>
<feColorMatrix in="SourceAlpha" type="matrix" values="0 0 0 0 0 0 0 0 0 0 0 0 0 0 0 0 0 0 127 0" result="hardAlpha"/>
<feOffset dy="4"/>
<feGaussianBlur stdDeviation="5"/>
<feComposite in2="hardAlpha" operator="out"/>
<feColorMatrix type="matrix" values="0 0 0 0 0.31816 0 0 0 0 0.289236 0 0 0 0 0.495833 0 0 0 0.4 0"/>
<feBlend mode="normal" in2="BackgroundImageFix" result="effect1_dropShadow_161_1598"/>
<feBlend mode="normal" in="SourceGraphic" in2="effect1_dropShadow_161_1598" result="shape"/>
</filter>
</defs>
</svg>
