<svg width="293" height="293" viewBox="0 0 293 293" fill="none" xmlns="http://www.w3.org/2000/svg">
<g filter="url(#filter0_d_161_1565)">
<circle cx="146.5" cy="142.5" r="96" fill="#514A7E" stroke="#514A7E"/>
<path d="M92.3418 136.613H90.6133V143H88.7383V128.781H90.6133V135.051H92.0781L97.0488 128.781H99.3828L93.9531 135.676L99.7832 143H97.4883L92.3418 136.613ZM107.742 143C107.638 142.792 107.553 142.421 107.488 141.887C106.648 142.759 105.646 143.195 104.48 143.195C103.439 143.195 102.583 142.902 101.912 142.316C101.248 141.724 100.916 140.975 100.916 140.07C100.916 138.97 101.333 138.117 102.166 137.512C103.006 136.9 104.184 136.594 105.701 136.594H107.459V135.764C107.459 135.132 107.27 134.631 106.893 134.26C106.515 133.882 105.958 133.693 105.223 133.693C104.578 133.693 104.038 133.856 103.602 134.182C103.165 134.507 102.947 134.901 102.947 135.363H101.131C101.131 134.836 101.316 134.328 101.688 133.84C102.065 133.345 102.573 132.954 103.211 132.668C103.855 132.382 104.562 132.238 105.33 132.238C106.548 132.238 107.501 132.544 108.191 133.156C108.882 133.762 109.24 134.598 109.266 135.666V140.529C109.266 141.499 109.389 142.271 109.637 142.844V143H107.742ZM104.744 141.623C105.311 141.623 105.848 141.477 106.355 141.184C106.863 140.891 107.231 140.51 107.459 140.041V137.873H106.043C103.829 137.873 102.723 138.521 102.723 139.816C102.723 140.383 102.911 140.826 103.289 141.145C103.667 141.464 104.152 141.623 104.744 141.623ZM119.793 133.898H116.248V143H114.441V133.898H110.965V132.434H119.793V133.898ZM127.918 143C127.814 142.792 127.729 142.421 127.664 141.887C126.824 142.759 125.822 143.195 124.656 143.195C123.615 143.195 122.758 142.902 122.088 142.316C121.424 141.724 121.092 140.975 121.092 140.07C121.092 138.97 121.508 138.117 122.342 137.512C123.182 136.9 124.36 136.594 125.877 136.594H127.635V135.764C127.635 135.132 127.446 134.631 127.068 134.26C126.691 133.882 126.134 133.693 125.398 133.693C124.754 133.693 124.214 133.856 123.777 134.182C123.341 134.507 123.123 134.901 123.123 135.363H121.307C121.307 134.836 121.492 134.328 121.863 133.84C122.241 133.345 122.749 132.954 123.387 132.668C124.031 132.382 124.738 132.238 125.506 132.238C126.723 132.238 127.677 132.544 128.367 133.156C129.057 133.762 129.415 134.598 129.441 135.666V140.529C129.441 141.499 129.565 142.271 129.812 142.844V143H127.918ZM124.92 141.623C125.486 141.623 126.023 141.477 126.531 141.184C127.039 140.891 127.407 140.51 127.635 140.041V137.873H126.219C124.005 137.873 122.898 138.521 122.898 139.816C122.898 140.383 123.087 140.826 123.465 141.145C123.842 141.464 124.327 141.623 124.92 141.623ZM140.936 132.434V143H139.119V133.928H135.525L135.311 137.883C135.193 139.699 134.887 140.998 134.393 141.779C133.904 142.561 133.126 142.967 132.059 143H131.336V141.408L131.854 141.369C132.439 141.304 132.859 140.965 133.113 140.354C133.367 139.742 133.53 138.609 133.602 136.955L133.797 132.434H140.936ZM143.357 137.619C143.357 136.584 143.559 135.653 143.963 134.826C144.373 133.999 144.939 133.361 145.662 132.912C146.391 132.463 147.221 132.238 148.152 132.238C149.591 132.238 150.753 132.736 151.639 133.732C152.531 134.729 152.977 136.053 152.977 137.707V137.834C152.977 138.863 152.778 139.787 152.381 140.607C151.99 141.421 151.427 142.056 150.691 142.512C149.962 142.967 149.122 143.195 148.172 143.195C146.74 143.195 145.577 142.697 144.686 141.701C143.8 140.705 143.357 139.387 143.357 137.746V137.619ZM145.174 137.834C145.174 139.006 145.444 139.947 145.984 140.656C146.531 141.366 147.26 141.721 148.172 141.721C149.09 141.721 149.819 141.363 150.359 140.646C150.9 139.924 151.17 138.915 151.17 137.619C151.17 136.46 150.893 135.523 150.34 134.807C149.793 134.084 149.064 133.723 148.152 133.723C147.26 133.723 146.541 134.077 145.994 134.787C145.447 135.497 145.174 136.512 145.174 137.834ZM162.068 133.928H157.195V143H155.379V132.434H162.068V133.928Z" fill="#FFFDF5"/>
<path d="M206.354 159.354C206.549 159.158 206.549 158.842 206.354 158.646L203.172 155.464C202.976 155.269 202.66 155.269 202.464 155.464C202.269 155.66 202.269 155.976 202.464 156.172L205.293 159L202.464 161.828C202.269 162.024 202.269 162.34 202.464 162.536C202.66 162.731 202.976 162.731 203.172 162.536L206.354 159.354ZM127 159.5H206V158.5H127V159.5Z" fill="#FFFDF5"/>
</g>
<defs>
<filter id="filter0_d_161_1565" x="0" y="0" width="293" height="293" filterUnits="userSpaceOnUse" color-interpolation-filters="sRGB">
<feFlood flood-opacity="0" result="BackgroundImageFix"/>
<feColorMatrix in="SourceAlpha" type="matrix" values="0 0 0 0 0 0 0 0 0 0 0 0 0 0 0 0 0 0 127 0" result="hardAlpha"/>
<feOffset dy="4"/>
<feGaussianBlur stdDeviation="25"/>
<feComposite in2="hardAlpha" operator="out"/>
<feColorMatrix type="matrix" values="0 0 0 0 0.31816 0 0 0 0 0.289236 0 0 0 0 0.495833 0 0 0 0.6 0"/>
<feBlend mode="normal" in2="BackgroundImageFix" result="effect1_dropShadow_161_1565"/>
<feBlend mode="normal" in="SourceGraphic" in2="effect1_dropShadow_161_1565" result="shape"/>
</filter>
</defs>
</svg>
