<svg width="21" height="20" viewBox="0 0 21 20" fill="none" xmlns="http://www.w3.org/2000/svg">
<g id="clarity:shopping-bag-line">
<path id="Vector" d="M14.3115 6.66666V5.02777C14.3115 4.51708 14.2101 4.01138 14.0129 3.53956C13.8158 3.06774 13.5269 2.63903 13.1627 2.27791C12.7984 1.9168 12.366 1.63034 11.8901 1.43491C11.4142 1.23947 10.9041 1.13889 10.389 1.13889C9.87389 1.13889 9.36382 1.23947 8.88792 1.43491C8.41201 1.63034 7.9796 1.9168 7.61536 2.27791C7.25112 2.63903 6.96219 3.06774 6.76506 3.53956C6.56793 4.01138 6.46648 4.51708 6.46648 5.02777V8.91666C6.46648 9.064 6.52551 9.20531 6.6306 9.3095C6.73569 9.41369 6.87822 9.47222 7.02684 9.47222C7.17545 9.47222 7.31798 9.41369 7.42307 9.3095C7.52816 9.20531 7.5872 9.064 7.5872 8.91666V7.77777H12.0701V6.66666H7.5872V5.02777C7.5872 4.29106 7.88239 3.58452 8.40783 3.06359C8.93327 2.54265 9.64592 2.25 10.389 2.25C11.1321 2.25 11.8447 2.54265 12.3702 3.06359C12.8956 3.58452 13.1908 4.29106 13.1908 5.02777V8.88889C13.1908 9.03623 13.2498 9.17754 13.3549 9.28172C13.46 9.38591 13.6026 9.44444 13.7512 9.44444C13.8998 9.44444 14.0423 9.38591 14.1474 9.28172C14.2525 9.17754 14.3115 9.03623 14.3115 8.88889V7.77777H17.1133V17.7778H3.66467V7.77777H5.34575V6.66666H2.54395V17.8278C2.54395 18.1092 2.65671 18.3791 2.85743 18.5781C3.05814 18.7771 3.33038 18.8889 3.61424 18.8889H17.1638C17.4476 18.8889 17.7199 18.7771 17.9206 18.5781C18.1213 18.3791 18.2341 18.1092 18.2341 17.8278V6.66666H14.3115Z" fill="#121212"/>
</g>
</svg>
