<svg width="18" height="17" viewBox="0 0 18 17" fill="none" xmlns="http://www.w3.org/2000/svg">
<path id="Vector" d="M8.96434 16.0352C8.84053 16.0348 8.72033 15.9938 8.62252 15.9185C5.50691 13.5185 3.36073 11.4518 1.85896 9.41294C-0.0574786 6.80739 -0.494561 4.40183 0.558919 2.26294C1.3098 0.735165 3.46719 -0.514834 5.98882 0.212943C7.1911 0.557243 8.24007 1.2956 8.96434 2.30739C9.68862 1.2956 10.7376 0.557243 11.9399 0.212943C14.4559 -0.503723 16.6189 0.735165 17.3698 2.26294C18.4232 4.40183 17.9862 6.80739 16.0697 9.41294C14.568 11.4518 12.4218 13.5185 9.30616 15.9185C9.20835 15.9938 9.08815 16.0348 8.96434 16.0352V16.0352ZM4.5543 1.1185C3.95429 1.09535 3.35925 1.23464 2.83306 1.52141C2.30686 1.80819 1.86938 2.23163 1.56757 2.74628C0.699009 4.51294 1.09126 6.47961 2.76674 8.75183C4.54733 11.0288 6.63235 13.0548 8.96434 14.7741C11.296 13.0565 13.381 11.0324 15.1619 8.75739C16.843 6.47961 17.2297 4.51294 16.3611 2.75183C15.8008 1.64072 14.1197 0.757388 12.2481 1.27961C11.6479 1.45544 11.0916 1.7539 10.6148 2.15576C10.1381 2.55763 9.75146 3.054 9.47987 3.61294C9.43765 3.71484 9.36584 3.80199 9.27354 3.86332C9.18125 3.92466 9.07265 3.95741 8.96154 3.95741C8.85043 3.95741 8.74183 3.92466 8.64954 3.86332C8.55724 3.80199 8.48542 3.71484 8.4432 3.61294C8.17366 3.0526 7.78771 2.55507 7.31065 2.15295C6.8336 1.75084 6.27621 1.45322 5.67502 1.27961C5.31077 1.17472 4.93359 1.1205 4.5543 1.1185V1.1185Z" fill="#FF0000"/>
</svg>
