<svg width="10" height="10" viewBox="0 0 10 10" fill="none" xmlns="http://www.w3.org/2000/svg">
<g id="clarity:favorite-solid" clip-path="url(#clip0_150_353)">
<g id="Group 39">
<path id="Vector" d="M9.44473 4.66103C9.54797 4.58412 9.62455 4.47683 9.66373 4.3542C9.70291 4.23157 9.70274 4.09975 9.66322 3.97722C9.62371 3.8547 9.54684 3.74762 9.44339 3.67098C9.33995 3.59435 9.21511 3.55202 9.08639 3.54992L6.58639 3.45547C6.5741 3.45462 6.56232 3.45024 6.55246 3.44285C6.5426 3.43545 6.53509 3.42537 6.53084 3.4138L5.66695 1.08047C5.62354 0.96176 5.54471 0.859253 5.44112 0.786831C5.33752 0.714408 5.21418 0.675568 5.08778 0.675568C4.96138 0.675568 4.83804 0.714408 4.73445 0.786831C4.63086 0.859253 4.55202 0.96176 4.50861 1.08047L3.6475 3.42214C3.64325 3.4337 3.63574 3.44379 3.62588 3.45118C3.61602 3.45857 3.60424 3.46296 3.59195 3.4638L1.09195 3.55825C0.963227 3.56035 0.838392 3.60269 0.734946 3.67932C0.6315 3.75595 0.554631 3.86303 0.515117 3.98556C0.475603 4.10808 0.475426 4.2399 0.51461 4.36253C0.553795 4.48516 0.630375 4.59245 0.733615 4.66936L2.69473 6.21103C2.70454 6.21875 2.71188 6.22918 2.71583 6.24103C2.71978 6.25288 2.72017 6.26563 2.71695 6.27769L2.04195 8.66936C2.00697 8.79115 2.01036 8.92076 2.05165 9.04055C2.09295 9.16035 2.17014 9.26451 2.27274 9.33888C2.37533 9.41325 2.49835 9.45421 2.62505 9.45618C2.75174 9.45815 2.87597 9.42105 2.98084 9.34992L5.05306 7.96103C5.06327 7.95398 5.07538 7.9502 5.08778 7.9502C5.10019 7.9502 5.1123 7.95398 5.1225 7.96103L7.19473 9.34992C7.29817 9.42348 7.42196 9.46301 7.54889 9.46301C7.67583 9.46301 7.79961 9.42348 7.90306 9.34992C8.00568 9.27625 8.08295 9.17259 8.12424 9.05321C8.16553 8.93382 8.1688 8.80457 8.13362 8.68325L7.45306 6.28325C7.44945 6.2712 7.44965 6.25833 7.45363 6.2464C7.45761 6.23447 7.46517 6.22406 7.47528 6.21658L9.44473 4.66103Z" fill="#514A7E"/>
</g>
</g>
<defs>
<clipPath id="clip0_150_353">
<rect width="10" height="10" fill="white"/>
</clipPath>
</defs>
</svg>
